<?xml version="1.0" encoding="UTF-8" standalone="no"?>
<!DOCTYPE svg PUBLIC "-//W3C//DTD SVG 1.1//EN"
 "http://www.w3.org/Graphics/SVG/1.1/DTD/svg11.dtd">
<!-- Generated by graphviz version 2.44.1 (20200629.0846)
 -->
<!-- Title: g Pages: 1 -->
<svg width="280pt" height="228pt"
 viewBox="0.00 0.00 280.00 227.60" xmlns="http://www.w3.org/2000/svg" xmlns:xlink="http://www.w3.org/1999/xlink">
<g id="graph0" class="graph" transform="scale(1 1) rotate(0) translate(4 223.6)">
<title>g</title>
<polygon fill="white" stroke="transparent" points="-4,4 -4,-223.6 276,-223.6 276,4 -4,4"/>
<g id="clust1" class="cluster">
<title>cluster_569274611</title>
<polygon fill="#ececec" stroke="black" points="8,-8 8,-211.6 264,-211.6 264,-8 8,-8"/>
<text text-anchor="middle" x="43.21" y="-195" font-family="Times New Roman,serif" font-size="14.00">deco2800</text>
</g>
<g id="clust2" class="cluster">
<title>cluster_1560693747</title>
<polygon fill="#d8d8d8" stroke="black" points="16,-16 16,-178.8 256,-178.8 256,-16 16,-16"/>
<text text-anchor="middle" x="39.16" y="-162.2" font-family="Times New Roman,serif" font-size="14.00">game</text>
</g>
<!-- MPCConfig1421829783 -->
<g id="node1" class="node">
<title>MPCConfig1421829783</title>
<polygon fill="#ffffff" stroke="transparent" points="248,-146 24,-146 24,-24 248,-24 248,-146"/>
<text text-anchor="start" x="29" y="-128.4" font-family="Times New Roman,serif" font-size="14.00">(C)MPCConfig</text>
<text text-anchor="start" x="29" y="-104.4" font-family="Times New Roman,serif" font-size="14.00">+ readValues()</text>
<text text-anchor="start" x="29" y="-80.4" font-family="Times New Roman,serif" font-size="14.00">+ updateAttire(attireType: String)</text>
<text text-anchor="start" x="28.64" y="-56.4" font-family="Times New Roman,serif" font-size="14.00">+ updateValues(values: PlayerConfig)</text>
<text text-anchor="start" x="29" y="-32.4" font-family="Times New Roman,serif" font-size="14.00">+ updateValues()</text>
<polygon fill="black" stroke="black" points="24,-121 24,-121 248,-121 248,-121 24,-121"/>
<polygon fill="none" stroke="black" points="24,-24 24,-146 248,-146 248,-24 24,-24"/>
</g>
</g>
</svg>
