<?xml version="1.0" encoding="UTF-8" standalone="no"?>
<!DOCTYPE svg PUBLIC "-//W3C//DTD SVG 1.1//EN"
 "http://www.w3.org/Graphics/SVG/1.1/DTD/svg11.dtd">
<!-- Generated by graphviz version 2.44.1 (20200629.0846)
 -->
<!-- Title: g Pages: 1 -->
<svg width="238pt" height="348pt"
 viewBox="0.00 0.00 238.00 347.60" xmlns="http://www.w3.org/2000/svg" xmlns:xlink="http://www.w3.org/1999/xlink">
<g id="graph0" class="graph" transform="scale(1 1) rotate(0) translate(4 343.6)">
<title>g</title>
<polygon fill="white" stroke="transparent" points="-4,4 -4,-343.6 234,-343.6 234,4 -4,4"/>
<g id="clust1" class="cluster">
<title>cluster_569274611</title>
<polygon fill="#ececec" stroke="black" points="8,-8 8,-331.6 222,-331.6 222,-8 8,-8"/>
<text text-anchor="middle" x="43.21" y="-315" font-family="Times New Roman,serif" font-size="14.00">deco2800</text>
</g>
<g id="clust2" class="cluster">
<title>cluster_1560693747</title>
<polygon fill="#d8d8d8" stroke="black" points="16,-16 16,-298.8 214,-298.8 214,-16 16,-16"/>
<text text-anchor="middle" x="39.16" y="-282.2" font-family="Times New Roman,serif" font-size="14.00">game</text>
</g>
<!-- UnlockedAttiresScreen2092419079 -->
<g id="node1" class="node">
<title>UnlockedAttiresScreen2092419079</title>
<polygon fill="#ffffff" stroke="transparent" points="205.5,-266 24.5,-266 24.5,-24 205.5,-24 205.5,-266"/>
<text text-anchor="start" x="30" y="-248.4" font-family="Times New Roman,serif" font-size="14.00">(C)UnlockedAttiresScreen</text>
<text text-anchor="start" x="30" y="-224.4" font-family="Times New Roman,serif" font-size="14.00">&#45; &#160;&#160;UIEntity: Entity [0..1]</text>
<text text-anchor="start" x="30" y="-200.4" font-family="Times New Roman,serif" font-size="14.00">&#45; &#160;&#160;game: GdxGame [0..1]</text>
<text text-anchor="start" x="30" y="-176.4" font-family="Times New Roman,serif" font-size="14.00">&#45; &#160;&#160;renderer: Renderer [0..1]</text>
<text text-anchor="start" x="30" y="-152.4" font-family="Times New Roman,serif" font-size="14.00">&#45; createUI()</text>
<text text-anchor="start" x="30" y="-128.4" font-family="Times New Roman,serif" font-size="14.00">+ dispose()</text>
<text text-anchor="start" x="30" y="-104.4" font-family="Times New Roman,serif" font-size="14.00">&#45; loadAssets()</text>
<text text-anchor="start" x="30" y="-80.4" font-family="Times New Roman,serif" font-size="14.00">+ render(delta: float)</text>
<text text-anchor="start" x="29.71" y="-56.4" font-family="Times New Roman,serif" font-size="14.00">+ resize(width: int, height: int)</text>
<text text-anchor="start" x="30" y="-32.4" font-family="Times New Roman,serif" font-size="14.00">&#45; unloadAssets()</text>
<polygon fill="black" stroke="black" points="25,-241 25,-241 206,-241 206,-241 25,-241"/>
<polygon fill="black" stroke="black" points="25,-169 25,-169 206,-169 206,-169 25,-169"/>
<polygon fill="none" stroke="black" points="24.5,-24 24.5,-266 205.5,-266 205.5,-24 24.5,-24"/>
</g>
</g>
</svg>
